<?xml version="1.0" encoding="UTF-8"?>
<svg id="Camada_2" data-name="Camada 2" xmlns="http://www.w3.org/2000/svg" viewBox="0 0 241.81 64">
  <g id="Layer_1" data-name="Layer 1">
    <g id="banner-positive">
      <g id="brand" isolation="isolate">
        <g>
          <path d="M73.02,39.93v-21.5h14.18v3.26h-10.33v5.76h9.57v3.22h-9.57v6h10.38v3.26h-14.23Z" fill="#94d902"/>
          <path d="M94.42,18.43v21.5h-3.72v-21.5h3.72Z" fill="#94d902"/>
          <path d="M105.19,40.26c-1.55,0-2.9-.34-4.05-1.03-1.15-.69-2.04-1.65-2.67-2.89-.63-1.24-.95-2.68-.95-4.32s.31-3.09.95-4.33c.63-1.24,1.52-2.21,2.67-2.89,1.15-.69,2.5-1.03,4.05-1.03s2.91.34,4.06,1.03c1.15.69,2.04,1.65,2.67,2.89.63,1.24.95,2.68.95,4.33s-.32,3.09-.95,4.32c-.63,1.24-1.52,2.2-2.67,2.89-1.15.69-2.5,1.03-4.06,1.03ZM105.19,37.22c.86,0,1.57-.23,2.15-.69.58-.46,1.01-1.08,1.31-1.86s.44-1.67.44-2.65-.15-1.89-.44-2.68-.73-1.4-1.31-1.85c-.58-.45-1.29-.68-2.15-.68s-1.56.23-2.14.68c-.58.45-1.01,1.07-1.3,1.85s-.43,1.68-.43,2.68.14,1.86.43,2.65.72,1.4,1.3,1.86c.58.46,1.29.69,2.14.69Z" fill="#94d902"/>
        </g>
        <g>
          <path d="M126.33,40.12c-1.88,0-3.55-.45-5.01-1.34-1.47-.89-2.62-2.17-3.47-3.82-.85-1.65-1.27-3.61-1.27-5.88s.42-4.25,1.27-5.9c.85-1.65,2-2.93,3.47-3.82,1.47-.89,3.14-1.34,5.01-1.34s3.53.45,5,1.34c1.47.89,2.62,2.17,3.46,3.82.84,1.65,1.26,3.62,1.26,5.9s-.42,4.23-1.26,5.88c-.84,1.65-2,2.92-3.46,3.82-1.47.89-3.13,1.34-5,1.34ZM126.33,37.13c1.22,0,2.32-.31,3.3-.92s1.75-1.52,2.32-2.73c.57-1.2.85-2.67.85-4.4s-.28-3.23-.85-4.43c-.57-1.2-1.34-2.11-2.32-2.73-.98-.62-2.08-.92-3.3-.92s-2.34.31-3.32.93c-.98.62-1.76,1.53-2.33,2.73-.57,1.2-.86,2.67-.86,4.42s.29,3.2.86,4.39c.57,1.2,1.35,2.11,2.33,2.73.98.62,2.09.93,3.32.93Z" fill="#fff"/>
          <path d="M139.62,39.81v-15.93h3.04v2.55h.14c.3-.87.8-1.54,1.51-2.03.71-.49,1.54-.74,2.49-.74.21,0,.44,0,.69.02.25.01.45.03.61.05v2.99c-.12-.03-.33-.06-.66-.1s-.66-.06-1-.06c-.69,0-1.32.15-1.88.45-.56.3-1,.72-1.31,1.26-.32.54-.48,1.18-.48,1.91v9.62h-3.16Z" fill="#fff"/>
          <path d="M156.98,46.16c-1.25,0-2.34-.16-3.25-.49-.92-.33-1.67-.78-2.27-1.35-.59-.57-1.02-1.22-1.28-1.94l2.73-.98c.18.35.44.69.77,1.03.33.34.75.62,1.28.85.53.23,1.2.34,2.01.34,1.23,0,2.22-.3,2.97-.9.75-.6,1.13-1.52,1.13-2.75v-2.97h-.22c-.23.4-.53.81-.9,1.22-.37.41-.86.75-1.46,1.03-.61.28-1.37.42-2.28.42-1.27,0-2.41-.31-3.43-.92-1.02-.62-1.81-1.51-2.4-2.68-.58-1.17-.87-2.59-.87-4.28s.29-3.12.87-4.34c.58-1.22,1.38-2.15,2.4-2.81,1.01-.66,2.17-.99,3.46-.99.92,0,1.69.15,2.3.45s1.11.66,1.49,1.1c.38.43.69.85.91,1.24h.17v-2.55h3.07v16.08c0,1.43-.32,2.61-.95,3.52-.64.91-1.5,1.59-2.58,2.03-1.09.44-2.31.66-3.67.66ZM156.92,37.03c.89,0,1.65-.21,2.28-.63s1.1-1.03,1.43-1.82c.33-.79.49-1.73.49-2.83s-.16-2.02-.49-2.83-.8-1.44-1.43-1.9c-.63-.46-1.39-.69-2.28-.69s-1.67.23-2.3.7-1.11,1.11-1.43,1.92c-.32.81-.48,1.74-.48,2.79s.16,2.01.49,2.8c.33.79.8,1.4,1.43,1.83.63.43,1.39.65,2.29.65Z" fill="#fff"/>
          <path d="M172.81,40.15c-1.02,0-1.94-.19-2.76-.56-.82-.37-1.46-.92-1.94-1.64-.48-.72-.71-1.61-.71-2.66,0-.9.18-1.65.53-2.23s.82-1.04,1.41-1.38c.59-.34,1.25-.59,1.98-.77.74-.17,1.49-.3,2.26-.39.95-.12,1.72-.21,2.3-.29.58-.08,1.01-.2,1.28-.36.27-.16.41-.43.41-.81v-.09c0-.59-.12-1.08-.35-1.49-.23-.41-.58-.72-1.04-.95-.46-.22-1.03-.33-1.7-.33s-1.27.11-1.77.32-.91.5-1.22.84c-.31.34-.53.71-.66,1.09l-2.99-.59c.3-.97.77-1.77,1.42-2.39.65-.62,1.42-1.08,2.32-1.39.89-.3,1.85-.45,2.87-.45.71,0,1.44.09,2.17.26.74.17,1.41.47,2.03.88.62.41,1.12.98,1.49,1.69.38.71.56,1.61.56,2.68v10.65h-3.06v-2.19h-.13c-.21.41-.52.81-.92,1.2-.4.38-.92.7-1.54.95s-1.38.38-2.25.38ZM172.27,21.6h-2.92v-.1l3.59-4.01h2.74l3.61,4.01v.1h-2.93l-2.05-2.51-2.05,2.51ZM173.5,37.62c.88,0,1.62-.17,2.22-.5.61-.34,1.07-.78,1.39-1.33s.48-1.14.48-1.76v-2.01c-.11.11-.31.2-.62.29-.31.09-.66.17-1.05.24s-.78.13-1.17.19c-.38.05-.72.1-1.01.14-.58.08-1.11.2-1.61.38-.5.18-.89.43-1.18.76-.29.33-.44.77-.44,1.32,0,.5.13.92.38,1.26s.61.59,1.06.76.97.26,1.56.26Z" fill="#fff"/>
          <path d="M187.95,30.43v9.38h-3.16v-15.93h3.03v3.91s-.39,0-.39,0c.47-1.42,1.15-2.47,2.05-3.14.89-.67,1.98-1,3.25-1,1.09,0,2.04.23,2.86.69.82.46,1.46,1.14,1.93,2.04.46.9.69,2.01.69,3.34v10.09h-3.15v-9.7c0-1.17-.3-2.08-.9-2.73-.6-.65-1.43-.97-2.48-.97-.71,0-1.35.15-1.92.46-.57.31-1.01.76-1.33,1.36-.32.6-.48,1.33-.48,2.21Z" fill="#fff"/>
          <path d="M203.88,21.39c-.55,0-1.02-.19-1.4-.56-.38-.37-.58-.82-.58-1.33s.19-.97.58-1.33.85-.54,1.4-.54,1.01.18,1.4.54.58.81.58,1.33-.19.96-.58,1.33c-.38.37-.85.56-1.4.56ZM202.29,39.81v-15.93h3.16v15.93h-3.16Z" fill="#fff"/>
          <path d="M216.24,40.15c-1.49,0-2.8-.34-3.92-1.03s-1.99-1.65-2.61-2.89c-.62-1.24-.93-2.67-.93-4.31s.31-3.1.93-4.34c.62-1.24,1.49-2.21,2.61-2.89s2.43-1.03,3.92-1.03c.86,0,1.65.11,2.4.34.74.23,1.41.55,2,.98.59.43,1.09.95,1.49,1.56.4.61.69,1.3.86,2.06l-3.02.56c-.1-.42-.25-.81-.47-1.15s-.48-.64-.79-.89-.67-.44-1.08-.58c-.41-.13-.86-.2-1.35-.2-.95,0-1.75.25-2.38.74-.64.5-1.11,1.16-1.43,2.01s-.48,1.79-.48,2.85.16,1.98.48,2.81.79,1.5,1.42,2c.63.5,1.43.74,2.39.74.5,0,.96-.07,1.37-.21.41-.14.78-.34,1.09-.59.31-.25.58-.56.79-.92s.38-.76.48-1.19l3,.55c-.16.78-.45,1.48-.85,2.09-.4.62-.9,1.15-1.49,1.59-.59.44-1.26.78-2.01,1.01-.75.23-1.55.35-2.42.35Z" fill="#fff"/>
          <path d="M233.03,40.15c-1.5,0-2.81-.34-3.93-1.03s-1.99-1.65-2.61-2.89c-.62-1.24-.93-2.67-.93-4.31s.31-3.1.93-4.34c.62-1.24,1.49-2.21,2.61-2.89s2.43-1.03,3.93-1.03,2.83.34,3.95,1.03c1.12.69,1.99,1.65,2.61,2.89.62,1.24.93,2.69.93,4.34s-.31,3.07-.93,4.31c-.62,1.24-1.49,2.2-2.61,2.89-1.12.69-2.44,1.03-3.95,1.03ZM233.03,37.48c.95,0,1.75-.25,2.39-.74.64-.5,1.12-1.16,1.44-2.01s.48-1.78.48-2.81-.16-1.99-.48-2.84c-.32-.84-.8-1.51-1.44-2.01s-1.44-.75-2.39-.75-1.74.25-2.37.75c-.63.5-1.1,1.17-1.42,2.01-.32.84-.48,1.79-.48,2.84s.16,1.96.48,2.81.79,1.51,1.42,2.01c.63.5,1.42.74,2.37.74Z" fill="#fff"/>
        </g>
      </g>
      <g id="logo">
        <circle id="shape" cx="32" cy="32" r="32" fill="#fff"/>
        <path id="logo-2" data-name="logo" d="M50.29,32.34c-1.84-4.71-7.18-5.11-11.12-2.81-2.07,1.28-3.72,3.15-5.33,4.94-.06.11-.14.14-.2,0-1.16-4.31-2.69-8.91-7.6-10.04-3.21-.85-7.01.48-9.42,2.67-5.96,5.19-3.63,15.29,4,17.28,3.49.94,7.23-.28,9.79-2.75,1.08-.96,1.96-2.16,2.81-3.32.06-.06.09-.14.2-.14.88,2.69,2.78,5.19,5.62,5.99.74.2,1.39.43,2.18.37l-.03-.03c6.3.48,11.12-6.3,9.11-12.14ZM32.33,36.23c-.65.6-1.3,1.19-1.99,1.76-1.28,1.08-2.61,2.18-4.26,2.55-2.84.94-5.93-.88-6.81-3.66-1.16-3.12.31-7.06,3.26-8.62l1.05-.51c2.33-.91,4.48.65,5.79,2.21,1.13,1.28,1.84,2.84,2.5,4.4.2.48.34.96.57,1.45.06.17.03.31-.11.43ZM39.85,40.77c-2.47-.09-4.23-2.21-5.28-4.26-.06-.14-.03-.23.06-.31.45-.57.82-1.16,1.25-1.76,1.08-1.5,2.16-3.21,3.94-3.94,2.52-1.08,5.7.14,6.55,2.84,1.39,4.14-2.52,7.72-6.52,7.43ZM30.43,24.17c-.77-2.72.14-4.68,2.13-6.52.74-.54,1.42,1.9,1.45,2.38.28,2.21-.43,4.48-1.99,6.07-.2.17-.26.17-.45-.03-.48-.57-.91-1.16-1.16-1.87l.03-.03ZM37.72,25.79c.14,0,.2.17.11.31-.79,1.42-1.99,3.06-3.77,3.12-.26-.09-1.36.2-1.02-.31.43-.65.94-1.13,1.45-1.73-.17.06-.28.11-.37.2-.31.31-.71.54-.96.91-.57.45-.09-.74,0-.94.88-1.59,2.95-2.01,4.57-1.56ZM28.9,33.33c0,.48-.85.88-1.28.99-2.52.4-5.13.06-7.72.17-.34,0-.4-.09-.28-.43.09-.34.28-.74.68-.79.79-.17,1.59-.14,2.35-.11,1.11.03,2.18.03,3.29.11v-.03h2.67c.11,0,.23-.03.28.09Z" fill="#94d902"/>
      </g>
    </g>
  </g>
</svg>