<?xml version="1.0" encoding="UTF-8"?>
<svg id="Camada_2" data-name="Camada 2" xmlns="http://www.w3.org/2000/svg" width="1em" height="1em" viewBox="0 0 64 64">
  <g id="Layer_1" data-name="Layer 1">
    <g id="logo-positive">
      <circle id="shape" cx="32" cy="32" r="32" fill="#fff"/>
      <path id="logo" d="M50.29,32.34c-1.84-4.71-7.18-5.11-11.12-2.81-2.07,1.28-3.72,3.15-5.33,4.94-.06.11-.14.14-.2,0-1.16-4.31-2.69-8.91-7.6-10.04-3.21-.85-7.01.48-9.42,2.67-5.96,5.19-3.63,15.29,4,17.28,3.49.94,7.23-.28,9.79-2.75,1.08-.96,1.96-2.16,2.81-3.32.06-.06.09-.14.2-.14.88,2.69,2.78,5.19,5.62,5.99.74.2,1.39.43,2.18.37l-.03-.03c6.3.48,11.12-6.3,9.11-12.14ZM32.33,36.23c-.65.6-1.3,1.19-1.99,1.76-1.28,1.08-2.61,2.18-4.26,2.55-2.84.94-5.93-.88-6.81-3.66-1.16-3.12.31-7.06,3.26-8.62l1.05-.51c2.33-.91,4.48.65,5.79,2.21,1.13,1.28,1.84,2.84,2.5,4.4.2.48.34.96.57,1.45.06.17.03.31-.11.43ZM39.85,40.77c-2.47-.09-4.23-2.21-5.28-4.26-.06-.14-.03-.23.06-.31.45-.57.82-1.16,1.25-1.76,1.08-1.5,2.16-3.21,3.94-3.94,2.52-1.08,5.7.14,6.55,2.84,1.39,4.14-2.52,7.72-6.52,7.43ZM30.43,24.17c-.77-2.72.14-4.68,2.13-6.52.74-.54,1.42,1.9,1.45,2.38.28,2.21-.43,4.48-1.99,6.07-.2.17-.26.17-.45-.03-.48-.57-.91-1.16-1.16-1.87l.03-.03ZM37.72,25.79c.14,0,.2.17.11.31-.79,1.42-1.99,3.06-3.77,3.12-.26-.09-1.36.2-1.02-.31.43-.65.94-1.13,1.45-1.73-.17.06-.28.11-.37.2-.31.31-.71.54-.96.91-.57.45-.09-.74,0-.94.88-1.59,2.95-2.01,4.57-1.56ZM28.9,33.33c0,.48-.85.88-1.28.99-2.52.4-5.13.06-7.72.17-.34,0-.4-.09-.28-.43.09-.34.28-.74.68-.79.79-.17,1.59-.14,2.35-.11,1.11.03,2.18.03,3.29.11v-.03h2.67c.11,0,.23-.03.28.09Z" fill="#94d902"/>
    </g>
  </g>
</svg>